<svg width="21" height="20" viewBox="0 0 21 20" fill="none" xmlns="http://www.w3.org/2000/svg">
<rect width="21" height="20" fill="#4E76C6"/>
<path d="M17.5 5.0013H14C14 3.15964 12.4338 1.66797 10.5 1.66797C8.56625 1.66797 7 3.15964 7 5.0013H5.25C4.2875 5.0013 3.5 5.0013 3.5 5.0013V16.668C3.5 17.5846 3.5 18.3346 3.5 18.3346H15.75C16.7125 18.3346 17.5 18.3346 17.5 18.3346V6.66797C17.5 5.7513 17.5 5.0013 17.5 5.0013ZM10.5 3.33464C11.4625 3.33464 12.25 4.08464 12.25 5.0013H8.75C8.75 4.08464 9.5375 3.33464 10.5 3.33464ZM15.75 16.668H5.25V6.66797H7V8.33464H7.875H8.75V6.66797H12.25V8.33464H13.125H14V6.66797H15.75V16.668Z" fill="white"/>
</svg>
