<?xml version="1.0" encoding="iso-8859-1"?>
<!-- Generator: Adobe Illustrator 19.0.0, SVG Export Plug-In . SVG Version: 6.00 Build 0)  -->
<svg version="1.1" id="Layer_1" xmlns="http://www.w3.org/2000/svg" xmlns:xlink="http://www.w3.org/1999/xlink" x="0px" y="0px"
	 viewBox="0 0 503.551 503.551" style="enable-background:new 0 0 503.551 503.551;" xml:space="preserve">
<g transform="translate(1)">
	<g>
		<g>
			<path d="M499.895,280.71l-8.234-19.221c-0.117-0.285-0.327-0.504-0.478-0.764c-0.722-1.763-1.595-3.567-2.871-5.414
				c-12.212-17.744-46.13-26.313-100.696-25.583l-9.82,61.356c-5.573,0.353-11.281,0.663-17.156,0.94l10.601-66.182l-29.897-14.067
				l-16.149,27.489c-1.57,2.661-4.373,4.138-7.252,4.138c-1.435,0-2.904-0.369-4.239-1.15c-3.995-2.35-5.33-7.495-2.988-11.491
				l15.377-26.162l-18.776-8.838l-15.696,26.716c-1.57,2.661-4.373,4.138-7.252,4.138c-1.435,0-2.904-0.369-4.239-1.15
				c-3.995-2.35-5.33-7.495-2.988-11.491l14.924-25.39l-18.776-8.838l-15.242,25.944c-1.57,2.661-4.373,4.138-7.252,4.138
				c-1.435,0-2.904-0.369-4.239-1.15c-3.995-2.35-5.33-7.495-2.988-11.491l14.462-24.618l-18.768-8.83l-14.789,25.164
				c-1.57,2.661-4.373,4.138-7.252,4.138c-1.435,0-2.904-0.369-4.239-1.15c-3.995-2.35-5.33-7.495-2.988-11.491l14.009-23.846
				l-22.419-10.551c-3.836-1.796-8.393-0.453-10.66,3.106c-0.856,1.343-8.998,13.79-24.056,25.902v32.029
				c0,23.141-18.826,41.967-41.967,41.967H91.328c-23.132,0-41.967-18.826-41.967-41.967v-20.388
				c-5.38-2.443-10.886-5.229-16.56-8.536c-0.99-0.579-2.082-0.89-3.198-1.024c-7.009-1.427-13.816-11.39-13.816-20.413
				c0-4.633-3.752-8.393-8.393-8.393c-4.633,0-8.393,3.76-8.393,8.393c0,12.918,7.814,27.766,20.01,34.145
				c-7.034,37.376-17.584,91.824-19.574,97.792c-0.117,0.344-0.034,0.705-0.101,1.058C-0.773,290.212-1,290.715-1,291.269v50.067
				c0,4.566,3.651,8.293,8.217,8.393c2.023,0.042,203.91,4.474,333.505,8.393c4.893,0.151,9.661,0.218,14.277,0.218
				c71.923,0,111.54-17.248,132.381-32.248C500.987,316.307,506.199,297.808,499.895,280.71z M192.049,223.828h50.361
				c4.642,0,8.393,3.76,8.393,8.393c0,4.642-3.752,8.393-8.393,8.393h-50.361c-4.633,0-8.393-3.752-8.393-8.393
				C183.656,227.588,187.416,223.828,192.049,223.828z M183.555,257.402h67.357c21.177,0,38.534,15.855,41.296,36.285
				c-5.556,0.034-11.172,0.042-16.846,0.034c-2.535-11.163-12.523-19.532-24.45-19.532h-67.357c-11.029,0-20.413,7.16-23.762,17.064
				l-17.198-0.562C146.565,271.712,163.411,257.402,183.555,257.402z M477.577,312.471c-20.077,14.445-59.929,31.156-136.343,28.873
				C226.471,337.878,55.077,334,15.787,333.127v-32.818c37.611,2.728,149.613,10.148,255.815,10.383h0.42
				c1.544,0,3.097,0.008,4.642,0.008c3.139,0,6.236-0.025,9.359-0.042c1.989-0.008,3.979-0.008,5.959-0.025
				c4.104-0.025,8.167-0.076,12.229-0.134c2.124-0.025,4.255-0.05,6.371-0.084c3.861-0.067,7.672-0.151,11.474-0.243
				c2.266-0.05,4.541-0.101,6.782-0.159c3.643-0.101,7.227-0.227,10.802-0.353c2.333-0.084,4.675-0.159,6.983-0.252
				c3.458-0.134,6.841-0.302,10.232-0.462c2.333-0.117,4.684-0.218,6.983-0.344c3.257-0.185,6.446-0.386,9.636-0.588
				c2.342-0.151,4.692-0.294,6.992-0.453c3.03-0.218,5.976-0.462,8.922-0.705c2.333-0.185,4.675-0.378,6.958-0.579
				c2.795-0.26,5.506-0.537,8.226-0.814c2.291-0.243,4.591-0.47,6.824-0.73c2.568-0.294,5.044-0.613,7.521-0.932
				c2.216-0.285,4.44-0.571,6.572-0.873c2.35-0.336,4.591-0.705,6.849-1.066c2.098-0.336,4.205-0.672,6.211-1.032
				c2.132-0.378,4.146-0.789,6.169-1.192c1.947-0.395,3.903-0.781,5.758-1.2c1.888-0.428,3.668-0.881,5.456-1.335
				c1.779-0.453,3.567-0.898,5.238-1.377c1.654-0.47,3.19-0.974,4.742-1.477c1.578-0.512,3.156-1.016,4.616-1.561
				c1.41-0.52,2.703-1.074,4.004-1.628c1.351-0.571,2.703-1.142,3.92-1.746c1.175-0.579,2.207-1.183,3.248-1.796
				c0.747-0.428,1.637-0.831,2.325-1.276l0.285,0.68C487.91,296.708,485.207,306.982,477.577,312.471z"/>
			<path d="M91.331,232.225h33.574c13.883,0,25.18-11.298,25.18-25.18v-20.782c-20.556,11.272-48.665,17.996-83.934,6.857v13.925
				C66.151,220.927,77.448,232.225,91.331,232.225z"/>
		</g>
	</g>
</g>
<g>
</g>
<g>
</g>
<g>
</g>
<g>
</g>
<g>
</g>
<g>
</g>
<g>
</g>
<g>
</g>
<g>
</g>
<g>
</g>
<g>
</g>
<g>
</g>
<g>
</g>
<g>
</g>
<g>
</g>
</svg>
