<svg width="19" height="17" viewBox="0 0 19 17" fill="none" xmlns="http://www.w3.org/2000/svg">
<path fill-rule="evenodd" clip-rule="evenodd" d="M2 7.5C2 4.46243 4.46243 2 7.5 2C10.5376 2 13 4.46243 13 7.5C13 10.5376 10.5376 13 7.5 13C4.46243 13 2 10.5376 2 7.5ZM7.5 0C3.35786 0 0 3.35786 0 7.5C0 11.6421 3.35786 15 7.5 15C9.52164 15 11.3565 14.2001 12.7052 12.8996C12.7612 12.9954 12.8341 13.0834 12.9236 13.1591L16.0648 15.8134L16.8286 16.4588L18.1195 14.9312L17.3557 14.2858L14.2145 11.6315C14.1129 11.5456 13.9992 11.4835 13.8801 11.4446C14.5901 10.2986 15 8.94719 15 7.5C15 3.35786 11.6421 0 7.5 0Z" fill="black"/>
</svg>
