<svg width="36" height="24" viewBox="0 0 36 24" fill="none" xmlns="http://www.w3.org/2000/svg">
<path d="M0.00938797 0.680618C0.00698853 0.666553 0.00279617 0.652487 0.00159836 0.638421C-0.00259781 0.595052 0.00219727 0.551098 0.00759125 0.507143C0.00878906 0.496007 0.00698853 0.485458 0.00878906 0.474323C0.019577 0.416303 0.03936 0.359455 0.0687294 0.30495C0.0735245 0.295573 0.0801163 0.286782 0.0855103 0.277405C0.0867081 0.276233 0.0867081 0.274475 0.087307 0.272717C0.0879059 0.271545 0.0897064 0.270959 0.0903053 0.269201C0.0945015 0.262754 0.0980988 0.255721 0.102295 0.24986C0.139454 0.196528 0.18441 0.152573 0.234756 0.115065C0.246147 0.10686 0.259331 0.102172 0.27132 0.0945528C0.315674 0.0658356 0.362427 0.0423929 0.412773 0.0265691C0.434952 0.0195364 0.457127 0.0160202 0.479904 0.0119177C0.523659 0.00312675 0.567413 -0.000975974 0.612968 0.000196157C0.636944 0.000782223 0.659721 0.00195425 0.683697 0.00547064C0.69928 0.00781491 0.714264 0.00547095 0.729847 0.00898734L35.5218 7.03943C35.7693 7.08983 35.9587 7.28616 35.9941 7.53114C36.0294 7.77611 35.9042 8.0164 35.6806 8.13186L25.7116 13.2734L23.9632 22.76C23.9644 22.7671 23.9626 22.7747 23.9632 22.7817C23.9692 22.8286 23.9698 22.8743 23.9638 22.9206C23.9608 22.9441 23.9578 22.9663 23.9518 22.9892C23.938 23.0449 23.9159 23.097 23.8859 23.1463C23.8799 23.1556 23.8799 23.1668 23.8733 23.1762C23.8715 23.1791 23.8685 23.1814 23.8661 23.1838C23.8583 23.1949 23.8475 23.2037 23.8385 23.2148C23.8104 23.2488 23.781 23.2799 23.7474 23.3063C23.742 23.3104 23.7384 23.3168 23.7325 23.3209C23.7235 23.3274 23.7133 23.3291 23.7043 23.335C23.6677 23.3584 23.63 23.3778 23.5898 23.393C23.5736 23.3989 23.5586 23.4059 23.5418 23.4106C23.4879 23.4258 23.4322 23.4364 23.3758 23.4364C23.3752 23.4364 23.3746 23.4364 23.374 23.4364C23.3716 23.4364 23.3692 23.4352 23.3668 23.4352C23.3566 23.4358 23.3464 23.4364 23.3363 23.4364C23.1702 23.4364 23.0204 23.3637 22.9095 23.2518L16.2689 18.9231L9.31604 23.342C9.21774 23.4041 9.10386 23.4364 8.98938 23.4364C8.92644 23.4364 8.86231 23.4264 8.80057 23.4065C8.62795 23.3502 8.49009 23.2201 8.42715 23.0525L0.0381584 0.788454C0.030365 0.768528 0.0237732 0.748016 0.0183792 0.726917C0.0159836 0.718126 0.0153809 0.709335 0.0135841 0.701131C0.0117836 0.694684 0.0105858 0.687651 0.00938797 0.680618ZM6.95147 4.42147L21.3325 14.7603C21.3559 14.7773 21.3745 14.7983 21.3949 14.8183C21.4026 14.8253 21.4104 14.8312 21.417 14.8388C21.4296 14.8523 21.441 14.8657 21.4524 14.8804C21.4632 14.8945 21.4716 14.9091 21.4812 14.9238C21.5033 14.9589 21.5219 14.9953 21.5363 15.0339C21.5393 15.0416 21.5441 15.0474 21.5465 15.055C21.5471 15.0574 21.5495 15.0586 21.5501 15.0609L23.1984 20.2986L24.5045 13.2125L6.95147 4.42147ZM22.2694 21.4262L20.6354 16.1492L18.0916 17.7662L17.364 18.2286L19.8358 19.8397L22.2694 21.4262ZM4.80567 2.02974L25.1686 12.2279L33.6439 7.85699L4.80567 2.02974ZM9.29207 21.9595L18.5256 16.0918L19.924 15.2027L1.8501 2.20849L9.29207 21.9595Z" fill="black"/>
</svg>
