<svg width="22" height="21" viewBox="0 0 22 21" fill="none" xmlns="http://www.w3.org/2000/svg">
<path d="M21.9636 6.09946C21.6425 2.56485 19.1407 0.000423123 16.0097 0.000423123C13.9238 0.000423123 12.0139 1.12292 10.9392 2.92195C9.87429 1.09965 8.04268 0 5.9902 0C2.85966 0 0.357423 2.56443 0.0367099 6.09904C0.0113237 6.25517 -0.0927599 7.07683 0.223722 8.4168C0.679828 10.3495 1.73336 12.1075 3.26965 13.4995L10.9342 20.455L18.7303 13.5C20.2666 12.1075 21.3201 10.35 21.7762 8.4168C22.0927 7.07726 21.9886 6.25559 21.9636 6.09946ZM20.9524 8.22302C20.5361 9.98821 19.571 11.5964 18.1642 12.8708L10.9392 19.3168L3.8383 12.8725C2.42894 11.5956 1.46426 9.98779 1.0475 8.2226C0.747947 6.95456 0.87107 6.23824 0.871493 6.23359L0.87784 6.19085C1.15286 3.09416 3.30265 0.846207 5.9902 0.846207C7.97329 0.846207 9.71902 2.06475 10.5475 4.02583L10.9371 4.94947L11.3268 4.02583C12.1421 2.09479 13.9801 0.846631 16.0101 0.846631C18.6973 0.846631 20.8475 3.09458 21.128 6.23147C21.1289 6.23824 21.252 6.95498 20.9524 8.22302Z" fill="black"/>
</svg>
