<svg width="22" height="23" viewBox="0 0 22 23" fill="none" xmlns="http://www.w3.org/2000/svg">
<path d="M21.8798 22.1179L15.47 15.4519C17.1049 13.8122 18.1178 11.5518 18.1178 9.05888C18.1178 4.06355 14.0542 0 9.05888 0C4.06355 0 0 4.06355 0 9.05888C0 14.0542 4.06355 18.1178 9.05888 18.1178C11.2516 18.1178 13.2639 17.3339 14.8324 16.0334L21.2577 22.7158C21.3423 22.8042 21.4553 22.8482 21.5688 22.8482C21.6766 22.8482 21.784 22.8081 21.8677 22.7279C22.0394 22.5626 22.0446 22.2896 21.8798 22.1179ZM9.05888 17.255C4.53936 17.255 0.86275 13.5784 0.86275 9.05888C0.86275 4.53936 4.53936 0.86275 9.05888 0.86275C13.5784 0.86275 17.255 4.53936 17.255 9.05888C17.255 13.5784 13.578 17.255 9.05888 17.255Z" fill="black"/>
</svg>
