<svg width="22" height="23" viewBox="0 0 22 23" fill="none" xmlns="http://www.w3.org/2000/svg">
<path d="M21.9898 17.3279C21.8395 15.7675 20.0476 14.5156 19.8527 14.3846C19.6599 14.2466 17.9252 13.0394 16.3885 13.0394C15.7391 13.0394 15.1962 13.2418 14.7579 13.6577L14.716 13.7029C14.2101 14.2951 13.187 15.1714 12.598 15.1714C12.5585 15.1714 12.5249 15.1669 12.4943 15.1569C12.1609 14.9118 10.5128 13.6848 9.42182 12.5934C8.54514 11.7167 7.13138 9.87874 6.84702 9.50631C6.6988 9.02832 7.57669 7.89996 8.31375 7.26266L8.35503 7.22202C10.0033 5.481 7.7161 2.28717 7.62717 2.16522C7.56805 2.07694 6.15859 0 4.46104 0C3.87714 0 3.34992 0.22747 2.92202 0.650418C2.72388 0.813044 -1.89789 4.6959 0.893757 10.4089C1.03316 10.6955 1.20727 10.9842 1.44132 11.318C2.12644 12.2965 3.90113 14.7533 5.58162 16.4336C7.17709 18.0293 9.67492 19.8459 10.6748 20.5525C11.0179 20.7953 11.3156 20.9751 11.6121 21.1196C12.8355 21.7146 14.0699 22.016 15.2808 22.016C18.8472 22.016 21.0414 19.4603 21.342 19.0878C21.8282 18.5848 22.0522 17.9767 21.9898 17.3279ZM20.7267 18.5146L20.6975 18.5387C20.4836 18.8077 18.514 21.1575 15.2808 21.1575H15.28C14.198 21.1575 13.0877 20.8932 11.98 20.3545C11.7256 20.2309 11.4653 20.0771 11.1604 19.8615C10.1782 19.1672 7.72594 17.3869 6.17622 15.8368C4.54278 14.2033 2.80253 11.7948 2.13014 10.8344C1.92176 10.5375 1.76919 10.2856 1.64948 10.0396C-0.811365 5.00335 3.01134 1.66487 3.48356 1.27508C3.78086 0.982722 4.10053 0.840822 4.46104 0.840822C5.50116 0.840822 6.59465 2.13469 6.93749 2.64635C7.49202 3.4093 8.71795 5.61528 7.74706 6.64139C7.65547 6.72064 5.50895 8.59514 6.09409 9.8882L6.14255 9.96951C6.31606 10.1974 7.86535 12.2263 8.82722 13.188C10.0213 14.3821 11.8369 15.7182 12.0401 15.8669L12.1122 15.9091C12.2606 15.9777 12.4243 16.0122 12.5984 16.0122C13.835 16.0122 15.2939 14.3209 15.3526 14.2519C15.613 14.0051 15.9614 13.8803 16.3885 13.8803C17.6852 13.8803 19.2959 15.0202 19.3731 15.0752C19.3897 15.0863 21.0374 16.2114 21.1525 17.4084C21.1921 17.8202 21.0529 18.182 20.7267 18.5146Z" fill="black"/>
</svg>
