<svg width="20" height="26" viewBox="0 0 20 26" fill="none" xmlns="http://www.w3.org/2000/svg">
<path d="M10.0004 13.1031C11.4956 13.1031 12.9557 12.1959 14.1117 10.5485C15.1319 9.09476 15.7409 7.29734 15.7409 5.74042C15.7409 2.57516 13.1657 0 10.0004 0C6.83517 0 4.26001 2.57516 4.26001 5.74042C4.26001 7.29734 4.86901 9.09476 5.88919 10.5485C7.04516 12.1959 8.50523 13.1031 10.0004 13.1031ZM10.0004 0.93606C12.6495 0.93606 14.8048 3.09131 14.8048 5.74042C14.8048 7.09178 14.2456 8.72808 13.3455 10.0109C12.3839 11.3811 11.1647 12.167 10.0004 12.167C8.83616 12.167 7.61697 11.3811 6.65539 10.0109C5.75527 8.72808 5.19607 7.09178 5.19607 5.74042C5.19607 3.09131 7.35132 0.93606 10.0004 0.93606Z" fill="black"/>
<path d="M18.4121 15.6707C17.4007 14.101 15.9768 12.848 14.2943 12.047C14.1155 11.9619 13.9027 11.9985 13.7626 12.1382C12.6349 13.2628 11.3338 13.8571 10.0001 13.8571C8.66611 13.8571 7.36524 13.2628 6.23822 12.1382C6.09806 11.9984 5.88514 11.9618 5.70648 12.0469C4.02394 12.8479 2.59988 14.101 1.58831 15.6706C0.549218 17.283 0 19.1536 0 21.0802V21.0883C0 21.2203 0.0557894 21.3463 0.153577 21.435C2.85417 23.8842 6.35105 25.233 10 25.233C13.649 25.233 17.1458 23.8842 19.8464 21.435C19.9442 21.3463 20 21.2204 20 21.0883V21.0802C20.0001 19.1536 19.451 17.283 18.4121 15.6707ZM10.0001 24.297C6.65389 24.297 3.4442 23.0853 0.938245 20.8808C0.974627 19.2049 1.46955 17.5829 2.37516 16.1777C3.23428 14.8447 4.42126 13.7636 5.82155 13.0352C7.07244 14.1868 8.51079 14.7932 10.0001 14.7932C11.4891 14.7932 12.9277 14.1867 14.1792 13.0352C15.5794 13.7634 16.7663 14.8446 17.6253 16.1777C18.5307 17.5828 19.0255 19.2048 19.0619 20.8807C16.5559 23.0852 13.3462 24.297 10.0001 24.297Z" fill="black"/>
</svg>
